<svg width="49" height="49" viewBox="0 0 49 49" fill="none" xmlns="http://www.w3.org/2000/svg">
<path d="M18.4567 43.9775C20.4167 44.5696 22.3971 44.9167 24.5 44.9167C29.9149 44.9167 35.1079 42.7657 38.9368 38.9368C42.7657 35.1079 44.9167 29.9149 44.9167 24.5C44.9167 21.8189 44.3886 19.164 43.3626 16.6869C42.3365 14.2099 40.8327 11.9591 38.9368 10.0633C37.0409 8.16741 34.7902 6.66353 32.3132 5.6375C29.8361 4.61147 27.1812 4.08337 24.5 4.08337C21.8189 4.08337 19.164 4.61147 16.6869 5.6375C14.2099 6.66353 11.9591 8.16741 10.0633 10.0633C6.23441 13.8921 4.08337 19.0852 4.08337 24.5C4.08337 33.1771 9.53462 40.6292 17.2317 43.5692C17.048 41.9767 16.8642 39.343 17.2317 37.5259L19.5796 27.44C19.5796 27.44 18.9875 26.2559 18.9875 24.3775C18.9875 21.56 20.7434 19.4571 22.7442 19.4571C24.5 19.4571 25.3167 20.7434 25.3167 22.3971C25.3167 24.153 24.153 26.6642 23.5609 29.0734C23.2138 31.0742 24.6225 32.83 26.6642 32.83C30.2984 32.83 33.1159 28.9509 33.1159 23.4792C33.1159 18.5792 29.6042 15.2309 24.5613 15.2309C18.8038 15.2309 15.4146 19.5184 15.4146 24.0305C15.4146 25.7863 15.9863 27.5625 16.9255 28.7263C17.1092 28.8488 17.1092 29.0121 17.048 29.3184L16.4559 31.5438C16.4559 31.8909 16.2313 32.0134 15.8842 31.7684C13.2709 30.625 11.76 26.9092 11.76 23.908C11.76 17.4563 16.3334 11.5967 25.1534 11.5967C32.1767 11.5967 37.6484 16.6396 37.6484 23.3363C37.6484 30.3596 33.2996 35.9946 27.0725 35.9946C25.0921 35.9946 23.1525 34.933 22.4584 33.6875L21.0905 38.5263C20.6209 40.2821 19.3346 42.63 18.4567 44.0388V43.9775Z" fill="#EAB308"/>
</svg>
