<svg width="49" height="49" viewBox="0 0 49 49" fill="none" xmlns="http://www.w3.org/2000/svg">
<path d="M36.5459 22.2542C30.0125 18.375 19.0896 17.9667 12.8625 19.9063C11.8417 20.2125 10.8209 19.6 10.5146 18.6813C10.2084 17.6605 10.8209 16.6396 11.7396 16.3334C18.9875 14.1896 30.9313 14.598 38.4855 19.0896C39.4042 19.6 39.7105 20.825 39.2 21.7438C38.6896 22.4584 37.4646 22.7646 36.5459 22.2542ZM36.3417 27.9709C35.8313 28.6855 34.9125 28.9917 34.198 28.4813C28.6855 25.1125 20.3146 24.0917 13.8834 26.1334C13.0667 26.3375 12.148 25.9292 11.9438 25.1125C11.7396 24.2959 12.148 23.3771 12.9646 23.173C20.4167 20.9271 29.6042 22.05 35.9334 25.9292C36.5459 26.2355 36.8521 27.2563 36.3417 27.9709ZM33.8917 33.5855C33.4834 34.198 32.7688 34.4021 32.1563 33.9938C27.3584 31.0334 21.3355 30.4209 14.1896 32.0542C13.475 32.2584 12.8625 31.748 12.6584 31.1355C12.4542 30.4209 12.9646 29.8084 13.5771 29.6042C21.3355 27.8688 28.073 28.5834 33.3813 31.85C34.0959 32.1563 34.198 32.973 33.8917 33.5855ZM24.5 4.08337C21.8189 4.08337 19.164 4.61147 16.6869 5.6375C14.2099 6.66353 11.9591 8.16741 10.0633 10.0633C6.23441 13.8921 4.08337 19.0852 4.08337 24.5C4.08337 29.9149 6.23441 35.1079 10.0633 38.9368C11.9591 40.8327 14.2099 42.3365 16.6869 43.3626C19.164 44.3886 21.8189 44.9167 24.5 44.9167C29.9149 44.9167 35.1079 42.7657 38.9368 38.9368C42.7657 35.1079 44.9167 29.9149 44.9167 24.5C44.9167 21.8189 44.3886 19.164 43.3626 16.6869C42.3365 14.2099 40.8327 11.9591 38.9368 10.0633C37.0409 8.16741 34.7902 6.66353 32.3132 5.6375C29.8361 4.61147 27.1812 4.08337 24.5 4.08337Z" fill="#EAB308"/>
</svg>
