<svg width="49" height="49" viewBox="0 0 49 49" fill="none" xmlns="http://www.w3.org/2000/svg">
<path d="M45.8558 12.25C44.2837 12.9645 42.5892 13.4341 40.8333 13.6587C42.63 12.5766 44.0183 10.8616 44.6717 8.79954C42.9771 9.82038 41.0987 10.535 39.1183 10.9433C37.5054 9.18746 35.2392 8.16663 32.6667 8.16663C27.8687 8.16663 23.9487 12.0866 23.9487 16.9254C23.9487 17.6195 24.0304 18.2933 24.1733 18.9262C16.905 18.5587 10.4329 15.0675 6.125 9.77954C5.36958 11.0658 4.94083 12.5766 4.94083 14.1691C4.94083 17.2112 6.47208 19.9062 8.84042 21.4375C7.39083 21.4375 6.04333 21.0291 4.85917 20.4166C4.85917 20.4166 4.85917 20.4166 4.85917 20.4779C4.85917 24.7245 7.88083 28.277 11.8825 29.0733C11.1475 29.2775 10.3717 29.3795 9.57542 29.3795C9.02417 29.3795 8.47292 29.3183 7.94208 29.2162C9.04458 32.6666 12.25 35.2391 16.1087 35.3004C13.1279 37.6687 9.35083 39.057 5.22667 39.057C4.5325 39.057 3.83833 39.0162 3.14417 38.9345C7.02333 41.4254 11.6375 42.875 16.5783 42.875C32.6667 42.875 41.5071 29.5225 41.5071 17.9462C41.5071 17.5583 41.5071 17.1908 41.4867 16.8029C43.2017 15.5779 44.6717 14.0262 45.8558 12.25Z" fill="#EAB308"/>
</svg>
