<svg width="49" height="49" viewBox="0 0 49 49" fill="none" xmlns="http://www.w3.org/2000/svg">
<path d="M18.4568 43.9775C20.4168 44.5696 22.3972 44.9167 24.5002 44.9167C29.915 44.9167 35.1081 42.7657 38.9369 38.9368C42.7658 35.1079 44.9168 29.9149 44.9168 24.5C44.9168 21.8189 44.3887 19.164 43.3627 16.6869C42.3367 14.2099 40.8328 11.9591 38.9369 10.0633C37.0411 8.16741 34.7903 6.66353 32.3133 5.6375C29.8362 4.61147 27.1813 4.08337 24.5002 4.08337C21.819 4.08337 19.1641 4.61147 16.687 5.6375C14.21 6.66353 11.9593 8.16741 10.0634 10.0633C6.23453 13.8921 4.0835 19.0852 4.0835 24.5C4.0835 33.1771 9.53474 40.6292 17.2318 43.5692C17.0481 41.9767 16.8643 39.343 17.2318 37.5259L19.5797 27.44C19.5797 27.44 18.9877 26.2559 18.9877 24.3775C18.9877 21.56 20.7435 19.4571 22.7443 19.4571C24.5002 19.4571 25.3168 20.7434 25.3168 22.3971C25.3168 24.153 24.1531 26.6642 23.561 29.0734C23.2139 31.0742 24.6227 32.83 26.6643 32.83C30.2985 32.83 33.116 28.9509 33.116 23.4792C33.116 18.5792 29.6043 15.2309 24.5614 15.2309C18.8039 15.2309 15.4147 19.5184 15.4147 24.0305C15.4147 25.7863 15.9864 27.5625 16.9256 28.7263C17.1093 28.8488 17.1093 29.0121 17.0481 29.3184L16.456 31.5438C16.456 31.8909 16.2314 32.0134 15.8843 31.7684C13.271 30.625 11.7602 26.9092 11.7602 23.908C11.7602 17.4563 16.3335 11.5967 25.1535 11.5967C32.1768 11.5967 37.6485 16.6396 37.6485 23.3363C37.6485 30.3596 33.2997 35.9946 27.0727 35.9946C25.0922 35.9946 23.1527 34.933 22.4585 33.6875L21.0906 38.5263C20.621 40.2821 19.3347 42.63 18.4568 44.0388V43.9775Z" fill="#8F999A"/>
</svg>
