<svg width="49" height="49" viewBox="0 0 49 49" fill="none" xmlns="http://www.w3.org/2000/svg">
<path d="M36.546 22.2542C30.0127 18.375 19.0897 17.9667 12.8627 19.9063C11.8418 20.2125 10.821 19.6 10.5147 18.6813C10.2085 17.6605 10.821 16.6396 11.7397 16.3334C18.9877 14.1896 30.9314 14.598 38.4856 19.0896C39.4043 19.6 39.7106 20.825 39.2002 21.7438C38.6897 22.4584 37.4647 22.7646 36.546 22.2542ZM36.3418 27.9709C35.8314 28.6855 34.9127 28.9917 34.1981 28.4813C28.6856 25.1125 20.3147 24.0917 13.8835 26.1334C13.0668 26.3375 12.1481 25.9292 11.9439 25.1125C11.7397 24.2959 12.1481 23.3771 12.9647 23.173C20.4168 20.9271 29.6043 22.05 35.9335 25.9292C36.546 26.2355 36.8522 27.2563 36.3418 27.9709ZM33.8918 33.5855C33.4835 34.198 32.7689 34.4021 32.1564 33.9938C27.3585 31.0334 21.3356 30.4209 14.1897 32.0542C13.4752 32.2584 12.8627 31.748 12.6585 31.1355C12.4543 30.4209 12.9647 29.8084 13.5772 29.6042C21.3356 27.8688 28.0731 28.5834 33.3814 31.85C34.096 32.1563 34.1981 32.973 33.8918 33.5855ZM24.5002 4.08337C21.819 4.08337 19.1641 4.61147 16.687 5.6375C14.21 6.66353 11.9593 8.16741 10.0634 10.0633C6.23453 13.8921 4.0835 19.0852 4.0835 24.5C4.0835 29.9149 6.23453 35.1079 10.0634 38.9368C11.9593 40.8327 14.21 42.3365 16.687 43.3626C19.1641 44.3886 21.819 44.9167 24.5002 44.9167C29.915 44.9167 35.1081 42.7657 38.9369 38.9368C42.7658 35.1079 44.9168 29.9149 44.9168 24.5C44.9168 21.8189 44.3887 19.164 43.3627 16.6869C42.3367 14.2099 40.8328 11.9591 38.9369 10.0633C37.0411 8.16741 34.7903 6.66353 32.3133 5.6375C29.8362 4.61147 27.1813 4.08337 24.5002 4.08337Z" fill="#8F999A"/>
</svg>
