<svg width="43" height="35" viewBox="0 0 43 35" fill="none" xmlns="http://www.w3.org/2000/svg">
<path d="M42.8557 4.24996C41.2836 4.96454 39.589 5.43413 37.8332 5.65871C39.6299 4.57663 41.0182 2.86163 41.6715 0.799542C39.977 1.82038 38.0986 2.53496 36.1182 2.94329C34.5053 1.18746 32.239 0.166626 29.6665 0.166626C24.8686 0.166626 20.9486 4.08663 20.9486 8.92537C20.9486 9.61954 21.0303 10.2933 21.1732 10.9262C13.9049 10.5587 7.43279 7.06746 3.12488 1.77954C2.36946 3.06579 1.94071 4.57663 1.94071 6.16913C1.94071 9.21121 3.47196 11.9062 5.84029 13.4375C4.39071 13.4375 3.04321 13.0291 1.85904 12.4166C1.85904 12.4166 1.85904 12.4166 1.85904 12.4779C1.85904 16.7245 4.88071 20.277 8.88238 21.0733C8.14738 21.2775 7.37154 21.3795 6.57529 21.3795C6.02404 21.3795 5.47279 21.3183 4.94196 21.2162C6.04446 24.6666 9.24988 27.2391 13.1086 27.3004C10.1278 29.6687 6.35071 31.057 2.22654 31.057C1.53238 31.057 0.83821 31.0162 0.144043 30.9345C4.02321 33.4254 8.63738 34.875 13.5782 34.875C29.6665 34.875 38.507 21.5225 38.507 9.94621C38.507 9.55829 38.507 9.19079 38.4865 8.80287C40.2015 7.57787 41.6715 6.02621 42.8557 4.24996Z" fill="#8F999A"/>
</svg>
