<svg width="49" height="49" viewBox="0 0 49 49" fill="none" xmlns="http://www.w3.org/2000/svg">
<path d="M18.4566 43.9775C20.4166 44.5696 22.397 44.9167 24.4999 44.9167C29.9148 44.9167 35.1078 42.7657 38.9367 38.9368C42.7655 35.1079 44.9166 29.9149 44.9166 24.5C44.9166 21.8189 44.3885 19.164 43.3625 16.6869C42.3364 14.2099 40.8325 11.9591 38.9367 10.0633C37.0408 8.16741 34.7901 6.66353 32.313 5.6375C29.836 4.61147 27.1811 4.08337 24.4999 4.08337C21.8188 4.08337 19.1639 4.61147 16.6868 5.6375C14.2097 6.66353 11.959 8.16741 10.0632 10.0633C6.23429 13.8921 4.08325 19.0852 4.08325 24.5C4.08325 33.1771 9.5345 40.6292 17.2316 43.5692C17.0478 41.9767 16.8641 39.343 17.2316 37.5259L19.5795 27.44C19.5795 27.44 18.9874 26.2559 18.9874 24.3775C18.9874 21.56 20.7433 19.4571 22.7441 19.4571C24.4999 19.4571 25.3166 20.7434 25.3166 22.3971C25.3166 24.153 24.1528 26.6642 23.5608 29.0734C23.2137 31.0742 24.6224 32.83 26.6641 32.83C30.2983 32.83 33.1157 28.9509 33.1157 23.4792C33.1157 18.5792 29.6041 15.2309 24.5612 15.2309C18.8037 15.2309 15.4145 19.5184 15.4145 24.0305C15.4145 25.7863 15.9862 27.5625 16.9253 28.7263C17.1091 28.8488 17.1091 29.0121 17.0478 29.3184L16.4558 31.5438C16.4558 31.8909 16.2312 32.0134 15.8841 31.7684C13.2708 30.625 11.7599 26.9092 11.7599 23.908C11.7599 17.4563 16.3333 11.5967 25.1532 11.5967C32.1766 11.5967 37.6483 16.6396 37.6483 23.3363C37.6483 30.3596 33.2995 35.9946 27.0724 35.9946C25.092 35.9946 23.1524 34.933 22.4583 33.6875L21.0903 38.5263C20.6208 40.2821 19.3345 42.63 18.4566 44.0388V43.9775Z" fill="#8B3D67"/>
</svg>
