<svg width="49" height="49" viewBox="0 0 49 49" fill="none" xmlns="http://www.w3.org/2000/svg">
<path d="M36.5457 22.2542C30.0124 18.375 19.0895 17.9667 12.8624 19.9063C11.8416 20.2125 10.8208 19.6 10.5145 18.6813C10.2083 17.6605 10.8208 16.6396 11.7395 16.3334C18.9874 14.1896 30.9312 14.598 38.4853 19.0896C39.4041 19.6 39.7103 20.825 39.1999 21.7438C38.6895 22.4584 37.4645 22.7646 36.5457 22.2542ZM36.3416 27.9709C35.8312 28.6855 34.9124 28.9917 34.1978 28.4813C28.6853 25.1125 20.3145 24.0917 13.8833 26.1334C13.0666 26.3375 12.1478 25.9292 11.9437 25.1125C11.7395 24.2959 12.1478 23.3771 12.9645 23.173C20.4166 20.9271 29.6041 22.05 35.9333 25.9292C36.5457 26.2355 36.852 27.2563 36.3416 27.9709ZM33.8916 33.5855C33.4832 34.198 32.7687 34.4021 32.1562 33.9938C27.3582 31.0334 21.3353 30.4209 14.1895 32.0542C13.4749 32.2584 12.8624 31.748 12.6583 31.1355C12.4541 30.4209 12.9645 29.8084 13.577 29.6042C21.3353 27.8688 28.0728 28.5834 33.3812 31.85C34.0958 32.1563 34.1978 32.973 33.8916 33.5855ZM24.4999 4.08337C21.8188 4.08337 19.1639 4.61147 16.6868 5.6375C14.2097 6.66353 11.959 8.16741 10.0632 10.0633C6.23429 13.8921 4.08325 19.0852 4.08325 24.5C4.08325 29.9149 6.23429 35.1079 10.0632 38.9368C11.959 40.8327 14.2097 42.3365 16.6868 43.3626C19.1639 44.3886 21.8188 44.9167 24.4999 44.9167C29.9148 44.9167 35.1078 42.7657 38.9367 38.9368C42.7655 35.1079 44.9166 29.9149 44.9166 24.5C44.9166 21.8189 44.3885 19.164 43.3625 16.6869C42.3364 14.2099 40.8325 11.9591 38.9367 10.0633C37.0408 8.16741 34.7901 6.66353 32.313 5.6375C29.836 4.61147 27.1811 4.08337 24.4999 4.08337Z" fill="#8B3D67"/>
</svg>
