<svg width="43" height="35" viewBox="0 0 43 35" fill="none" xmlns="http://www.w3.org/2000/svg">
<path d="M42.856 4.24996C41.2839 4.96454 39.5893 5.43413 37.8335 5.65871C39.6301 4.57663 41.0185 2.86163 41.6718 0.799542C39.9772 1.82038 38.0989 2.53496 36.1185 2.94329C34.5055 1.18746 32.2393 0.166626 29.6668 0.166626C24.8689 0.166626 20.9489 4.08663 20.9489 8.92537C20.9489 9.61954 21.0305 10.2933 21.1735 10.9262C13.9051 10.5587 7.43304 7.06746 3.12512 1.77954C2.3697 3.06579 1.94095 4.57663 1.94095 6.16913C1.94095 9.21121 3.4722 11.9062 5.84054 13.4375C4.39095 13.4375 3.04345 13.0291 1.85929 12.4166C1.85929 12.4166 1.85929 12.4166 1.85929 12.4779C1.85929 16.7245 4.88095 20.277 8.88262 21.0733C8.14762 21.2775 7.37179 21.3795 6.57554 21.3795C6.02429 21.3795 5.47304 21.3183 4.9422 21.2162C6.0447 24.6666 9.25012 27.2391 13.1089 27.3004C10.128 29.6687 6.35095 31.057 2.22679 31.057C1.53262 31.057 0.838454 31.0162 0.144287 30.9345C4.02345 33.4254 8.63762 34.875 13.5785 34.875C29.6668 34.875 38.5072 21.5225 38.5072 9.94621C38.5072 9.55829 38.5072 9.19079 38.4868 8.80287C40.2018 7.57787 41.6718 6.02621 42.856 4.24996Z" fill="#8B3D67"/>
</svg>
