<svg width="41" height="41" viewBox="0 0 41 41" fill="none" xmlns="http://www.w3.org/2000/svg">
<path d="M32.546 18.2542C26.0127 14.375 15.0897 13.9667 8.86266 15.9063C7.84183 16.2125 6.821 15.6 6.51475 14.6813C6.2085 13.6605 6.821 12.6396 7.73975 12.3334C14.9877 10.1896 26.9314 10.598 34.4856 15.0896C35.4043 15.6 35.7106 16.825 35.2002 17.7438C34.6897 18.4584 33.4647 18.7646 32.546 18.2542ZM32.3418 23.9709C31.8314 24.6855 30.9127 24.9917 30.1981 24.4813C24.6856 21.1125 16.3147 20.0917 9.8835 22.1334C9.06683 22.3375 8.14808 21.9292 7.94391 21.1125C7.73975 20.2959 8.14808 19.3771 8.96475 19.173C16.4168 16.9271 25.6043 18.05 31.9335 21.9292C32.546 22.2355 32.8522 23.2563 32.3418 23.9709ZM29.8918 29.5855C29.4835 30.198 28.7689 30.4021 28.1564 29.9938C23.3585 27.0334 17.3356 26.4209 10.1897 28.0542C9.47516 28.2584 8.86266 27.748 8.65849 27.1355C8.45433 26.4209 8.96475 25.8084 9.57725 25.6042C17.3356 23.8688 24.0731 24.5834 29.3814 27.85C30.096 28.1563 30.1981 28.973 29.8918 29.5855ZM20.5002 0.083374C17.819 0.083374 15.1641 0.611467 12.687 1.6375C10.21 2.66353 7.95926 4.16741 6.0634 6.06328C2.23453 9.89214 0.0834961 15.0852 0.0834961 20.5C0.0834961 25.9149 2.23453 31.1079 6.0634 34.9368C7.95926 36.8327 10.21 38.3365 12.687 39.3626C15.1641 40.3886 17.819 40.9167 20.5002 40.9167C25.915 40.9167 31.1081 38.7657 34.9369 34.9368C38.7658 31.1079 40.9168 25.9149 40.9168 20.5C40.9168 17.8189 40.3887 15.164 39.3627 12.6869C38.3367 10.2099 36.8328 7.95914 34.9369 6.06328C33.0411 4.16741 30.7903 2.66353 28.3133 1.6375C25.8362 0.611467 23.1813 0.083374 20.5002 0.083374Z" fill="#8862AD"/>
</svg>
