<svg width="41" height="40" viewBox="0 0 41 40" fill="none" xmlns="http://www.w3.org/2000/svg">
<path d="M20.3962 0C9.24875 0 0.163334 8.9 0.163334 19.82C0.163334 23.32 1.1025 26.72 2.85833 29.72L0 40L10.7188 37.24C13.6792 38.82 17.0071 39.66 20.3962 39.66C31.5438 39.66 40.6292 30.76 40.6292 19.84C40.6292 14.54 38.5263 9.56 34.7083 5.82C30.8904 2.06 25.8067 0 20.3962 0ZM20.4167 3.34C24.9083 3.34 29.1142 5.06 32.2992 8.18C35.4638 11.3 37.2196 15.44 37.2196 19.84C37.2196 28.92 29.6654 36.3 20.3962 36.3C17.3746 36.3 14.4142 35.52 11.8417 34L11.2292 33.66L4.85917 35.3L6.55375 29.22L6.14542 28.58C4.47125 26 3.57292 22.94 3.57292 19.82C3.59333 10.74 11.1271 3.34 20.4167 3.34ZM13.23 10.66C12.9033 10.66 12.3521 10.78 11.8825 11.28C11.4333 11.78 10.1062 13 10.1062 15.42C10.1062 17.86 11.9233 20.2 12.1479 20.54C12.4338 20.88 15.7413 25.88 20.825 28C22.0296 28.54 22.9688 28.84 23.7038 29.06C24.9083 29.44 26.0108 29.38 26.8888 29.26C27.8688 29.12 29.8696 28.06 30.2983 26.9C30.7271 25.74 30.7271 24.76 30.6046 24.54C30.4617 24.34 30.135 24.22 29.6246 24C29.1142 23.72 26.6233 22.52 26.1742 22.36C25.7046 22.2 25.4188 22.12 25.0308 22.6C24.7042 23.1 23.7242 24.22 23.4383 24.54C23.1321 24.88 22.8463 24.92 22.3563 24.68C21.8254 24.42 20.1921 23.9 18.2729 22.22C16.7621 20.9 15.7617 19.28 15.4554 18.78C15.2104 18.3 15.435 18 15.68 17.78C15.9046 17.56 16.2313 17.2 16.4354 16.9C16.7008 16.62 16.7825 16.4 16.9458 16.08C17.1092 15.74 17.0275 15.46 16.905 15.22C16.7825 15 15.7617 12.52 15.3329 11.54C14.9246 10.58 14.5163 10.7 14.1896 10.68C13.9038 10.68 13.5771 10.66 13.23 10.66Z" fill="#8B3D67"/>
</svg>
