<svg width="49" height="48" viewBox="0 0 49 48" fill="none" xmlns="http://www.w3.org/2000/svg">
<path d="M20.3963 4C9.24875 4 0.163334 12.9 0.163334 23.82C0.163334 27.32 1.1025 30.72 2.85833 33.72L0 44L10.7188 41.24C13.6792 42.82 17.0071 43.66 20.3963 43.66C31.5438 43.66 40.6292 34.76 40.6292 23.84C40.6292 18.54 38.5263 13.56 34.7083 9.82C30.8904 6.06 25.8067 4 20.3963 4ZM20.4167 7.34C24.9083 7.34 29.1142 9.06 32.2992 12.18C35.4638 15.3 37.2196 19.44 37.2196 23.84C37.2196 32.92 29.6654 40.3 20.3963 40.3C17.3746 40.3 14.4142 39.52 11.8417 38L11.2292 37.66L4.85917 39.3L6.55375 33.22L6.14542 32.58C4.47125 30 3.57292 26.94 3.57292 23.82C3.59333 14.74 11.1271 7.34 20.4167 7.34ZM13.23 14.66C12.9033 14.66 12.3521 14.78 11.8825 15.28C11.4333 15.78 10.1063 17 10.1063 19.42C10.1063 21.86 11.9233 24.2 12.1479 24.54C12.4338 24.88 15.7413 29.88 20.825 32C22.0296 32.54 22.9688 32.84 23.7038 33.06C24.9083 33.44 26.0108 33.38 26.8888 33.26C27.8688 33.12 29.8696 32.06 30.2983 30.9C30.7271 29.74 30.7271 28.76 30.6046 28.54C30.4617 28.34 30.135 28.22 29.6246 28C29.1142 27.72 26.6233 26.52 26.1742 26.36C25.7046 26.2 25.4188 26.12 25.0308 26.6C24.7042 27.1 23.7242 28.22 23.4383 28.54C23.1321 28.88 22.8463 28.92 22.3563 28.68C21.8254 28.42 20.1921 27.9 18.2729 26.22C16.7621 24.9 15.7617 23.28 15.4554 22.78C15.2104 22.3 15.435 22 15.68 21.78C15.9046 21.56 16.2313 21.2 16.4354 20.9C16.7008 20.62 16.7825 20.4 16.9458 20.08C17.1092 19.74 17.0275 19.46 16.905 19.22C16.7825 19 15.7617 16.52 15.3329 15.54C14.9246 14.58 14.5163 14.7 14.1896 14.68C13.9038 14.68 13.5771 14.66 13.23 14.66Z" fill="#8F999A"/>
</svg>
